<svg width="427" height="387" viewBox="0 0 427 387" fill="none" xmlns="http://www.w3.org/2000/svg">
<g clip-path="url(#clip0_325_1468)">
<path d="M365.639 217.143C362.99 217.026 360.383 217.219 357.745 217.452C355.638 217.644 353.408 217.923 351.292 217.693M406.45 301.738C406.538 299.72 406.388 297.738 406.209 295.733C406.062 294.131 405.847 292.429 406.018 290.822M348.883 216.223C345.943 213.225 342.83 210.298 339.657 207.547M408.022 288.071C410.306 285.835 411.64 284.389 413.729 281.978M339.536 207.629C339.357 208.884 339.104 210.111 339.053 211.387C338.916 214.915 339.29 218.425 339.331 221.947M413.668 281.883C412.712 281.75 411.778 281.554 410.808 281.515C408.121 281.411 406.665 281.577 403.981 281.603M337.633 224.513C334.81 227.48 332.493 230.83 329.765 233.868M400.817 280.421C398.557 278.271 396.003 276.507 393.692 274.429M329.57 234.075C331.023 233.911 332.505 233.992 333.956 234.017C337.531 234.075 341.115 234.374 344.685 234.154M393.535 274.277C393.661 275.383 393.6 276.514 393.58 277.617C393.542 280.336 393.314 283.063 393.487 285.782M344.521 234.229C346.008 235.335 347.212 236.8 348.596 238.015C350.638 239.795 354.077 242.964 356.223 244.682M393.428 285.655C392.591 286.786 391.474 287.701 390.552 288.752C389.2 290.303 388.001 291.985 386.559 293.454M365.709 217.841C362.669 221.434 359.616 225.055 356.437 228.537M405.921 301.791C403.184 299.473 400.423 297.15 397.773 294.726M356.111 228.677C355.932 232.428 356.774 240.661 356.793 244.421M397.665 294.481C394.811 294.339 391.909 294.539 389.045 294.547M289.609 153.445C289.555 155.078 289.555 156.694 289.621 158.32M335.813 285.046C336.798 285.575 337.838 286.091 338.825 286.623" stroke="#25316D" stroke-width="2" stroke-miterlimit="1.5" stroke-linecap="round" stroke-linejoin="round"/>
<path d="M73.3429 107.492C75.0669 109.505 76.9893 111.275 78.9615 113.039C80.5417 114.445 82.2692 115.881 83.5473 117.581M107.299 19.9276C105.764 21.2415 104.418 22.7059 103.074 24.2058C102.004 25.4076 100.906 26.7278 99.6144 27.701M84.1185 120.343C83.9354 124.536 83.9229 128.806 84.08 133M96.2347 28.118C93.0393 27.9804 91.071 27.9952 87.8808 28.1186M84.2222 133.032C85.2619 132.305 86.332 131.651 87.2993 130.817C89.9718 128.506 92.2827 125.835 94.8295 123.399M87.8532 28.2281C88.4097 29.0167 88.9038 29.8315 89.5387 30.5658C91.2981 32.597 92.4144 33.5454 94.2672 35.4854M97.8652 122.885C101.962 122.917 105.994 122.318 110.079 122.232M95.565 38.6007C95.538 41.7178 95.9925 44.786 96.0523 47.8912M110.364 122.232C109.251 121.285 108.298 120.149 107.324 119.073C104.924 116.426 102.695 113.607 100.094 111.154M96.049 48.1099C96.7717 47.2621 97.6394 46.5339 98.4598 45.7951C100.474 43.9651 102.623 42.2682 104.492 40.2844M100.261 111.222C100.054 109.382 100.302 107.503 100.245 105.663C100.151 102.958 100.117 98.2841 99.9072 95.5448M104.439 40.4137C105.838 40.2523 107.27 40.441 108.669 40.396C110.726 40.3226 112.775 40.0475 114.834 40.0957M73.8048 106.965C78.5084 106.727 83.2417 106.48 87.9585 106.42M107.699 20.2769C107.875 23.8566 108.063 27.4588 108.102 31.0471M88.2841 106.561C91.1482 104.13 96.591 97.8905 99.3274 95.3076M107.997 31.2932C109.842 33.4719 111.972 35.4518 113.934 37.5357M78.7249 206.469C79.9552 205.392 81.1368 204.288 82.2803 203.129M143.359 82.854C143.072 81.7747 142.739 80.6631 142.454 79.5801" stroke="#25316D" stroke-width="2" stroke-miterlimit="1.5" stroke-linecap="round" stroke-linejoin="round"/>
<path fill-rule="evenodd" clip-rule="evenodd" d="M0.773438 389.922C0.773438 389.922 33.3003 305.759 53.1628 288.208C73.0253 270.652 113.964 258.525 113.964 258.525C113.964 258.525 113.182 238.709 125.328 237.373C137.469 236.037 136.255 237.373 136.255 237.373C136.255 237.373 139.725 221.614 150.392 218.585C161.06 215.544 168.172 215.809 168.172 215.809L169.996 243.35C169.996 243.35 192.114 254.788 216.05 250.048C240.078 245.302 253.347 233.439 253.347 233.439L251.788 210.718C251.788 210.718 266.708 208.643 270.874 218.585C275.033 228.508 273.992 229.229 273.992 229.229C273.992 229.229 286.225 230.349 289.171 237.373C292.036 244.391 291.513 246.188 291.513 246.188C291.513 246.188 304.596 247.66 299.739 253.151C299.739 253.151 381.396 250.048 386.579 272.542C406.413 301.533 426.198 354.772 427 389.922H0.773438Z" fill="#58B9FD"/>
<path d="M181.446 129.651C186.561 136.404 187.43 145.151 185.088 153.105C184.305 155.542 183.35 157.906 182.136 160.116C181.877 160.442 180.491 162.178 180.577 162.474C180.577 162.64 183.35 162.751 183.702 162.794C187.257 163.243 190.813 162.948 194.369 162.917M203.995 121.716C209.548 116.354 219.525 115.8 225.509 120.94M146.318 123.476C151.52 119.21 160.197 116.422 166.095 120.897M227.315 87.4888C228.529 93.2999 230.612 98.6248 235.21 102.571C236.948 104.054 239.376 104.879 241.021 106.344C241.372 106.689 241.459 108.24 241.545 108.751C241.976 111.09 242.235 113.51 242.321 115.892C242.586 122.387 242.759 130.808 247.702 135.72M254.511 134.132C261.45 125.692 274.115 123.002 281.572 132.39C283.051 134.181 284.086 136.293 284.783 138.46C289.294 151.787 282.009 168.347 269.863 174.946C265.093 177.556 260.409 178.793 255.035 176.922M185.174 186.353C192.896 188.883 205.296 187.319 209.893 179.778C211.229 192.488 198.244 199.106 190.351 201.442C194.369 193.131 187.995 189.433 185.174 186.353Z" stroke="#25316D" stroke-width="2" stroke-miterlimit="1.5" stroke-linecap="round" stroke-linejoin="round"/>
<path d="M270.3 144.892C266.831 149.275 263.188 153.418 259.719 157.746M221.602 83.2745C209.721 90.5293 197.229 97.2516 183.005 97.8733C176.417 98.1565 168.35 96.0265 167.136 88.3501M128.798 78.2834C128.015 80.0335 127.319 81.887 127.06 83.828C125.846 93.3487 135.299 96.5805 143.108 96.1496C155.686 95.454 167.136 88.0669 175.024 78.5086M122.814 75.1992C120.472 72.5306 118.303 69.5678 117.002 66.2836C108.411 44.866 128.711 26.1256 147.095 20.078C154.73 17.5652 165.657 15.5903 173.12 19.7055C178.494 22.6339 170.778 28.7855 166.871 28.309C160.628 27.5291 158.718 19.4889 160.542 14.4201C162.015 10.5388 165.312 8.03519 169.04 6.41495C176.325 3.25266 183.96 3.49458 191.682 4.70791C207.903 7.27246 223.426 15.5817 236.263 25.4847C241.379 29.4183 246.931 33.5681 250.66 38.9225M259.854 53.3568C262.369 53.5821 264.883 54.1275 267.225 55.046C284.401 61.7264 284.228 81.9917 283.445 97.4732C283.273 101.376 283.014 105.248 282.404 109.108C281.8 113.115 280.758 117.141 279.458 120.989M258.381 30.977C259.337 34.3732 259.941 37.6919 260.027 41.218C260.027 42.1882 260.027 43.1676 259.941 44.1377C259.941 44.2332 259.768 44.9786 259.854 45.039C259.941 45.1085 260.982 44.6314 261.068 44.5884C262.461 44.1205 263.761 43.6268 265.148 43.1589C270.263 41.3743 275.816 39.719 281.282 39.5713M134.954 103.568C136.427 133.202 138.855 160.516 142.497 184.807C143.105 188.904 145.284 192.604 148.574 195.124C162.539 205.793 177.625 213.063 193.414 218.086C197.401 219.36 201.74 219.003 205.555 217.089C221.343 208.987 236.35 198.375 250.66 185.33M168.085 207.559L169.213 239.921" stroke="#25316D" stroke-width="2" stroke-miterlimit="1.5" stroke-linecap="round" stroke-linejoin="round"/>
<path d="M250.66 185.331L252.743 233.771C252.743 233.771 223.427 264.416 174.076 244.2M113.792 256.444C113.268 247.825 117.521 238.776 126.629 236.997C128.798 236.572 130.968 236.585 133.131 237.003C133.827 237.133 134.524 237.348 135.214 237.607C135.3 237.65 136.083 238.05 136.083 238.044C136.514 237.403 136.428 235.704 136.6 234.916C137.038 232.86 137.728 230.835 138.683 228.982C143.281 220.185 152.562 215.045 162.453 215.587M120.553 264.219C160.543 289.833 214.319 287.506 258.296 275.151C266.012 272.991 273.123 269.605 280.586 266.927M252.484 210.434C260.638 208.403 268.964 212.749 272.002 220.45C272.778 222.358 273.302 224.377 273.561 226.415V229.561C275.379 230.084 277.813 229.567 279.718 229.998C285.615 231.309 288.74 235.938 290.471 241.331M185.871 284.108L195.239 382.861M221.603 282.539L233.053 382.861" stroke="#25316D" stroke-width="2" stroke-miterlimit="1.5" stroke-linecap="round" stroke-linejoin="round"/>
<path d="M159.259 287.992C160.061 296.617 160.603 305.266 161.49 313.866C161.983 318.778 162.569 323.715 163.321 328.621C164.116 334.426 164.892 340.472 167.357 345.839C167.672 346.412 167.9 346.972 168.306 347.502C171.086 351.958 173.311 343.556 173.341 341.555C173.446 339.751 173.292 337.941 173.224 336.138C172.596 320.145 171.721 297.83 168.997 282.015M234.192 280.655C234.993 289.273 236.047 303.905 236.941 312.505C237.434 317.418 238.013 322.355 238.771 327.261C239.56 333.066 240.336 339.111 242.808 344.479C243.122 345.052 243.35 345.612 243.751 346.141C246.536 350.598 248.761 342.195 248.792 340.195C248.897 338.391 248.742 336.581 248.675 334.777C248.04 318.784 247.608 302.397 244.965 286.589M338.565 372.268C338.651 362.172 337.904 344.738 343.495 328.621C349.086 312.505 353.115 312.149 354.588 306.092M54.376 301.985C69.2097 324.909 76.2352 352.063 80.9188 378.706M73.197 310.899C78.2258 321.487 82.3055 332.567 84.8199 344.03" stroke="#25316D" stroke-width="2" stroke-miterlimit="1.5" stroke-linecap="round" stroke-linejoin="round"/>
<path d="M159.895 146.388C160.948 146.37 161.952 145.939 162.691 145.188C163.429 144.438 163.843 143.427 163.843 142.375C163.843 141.322 163.429 140.312 162.691 139.561C161.952 138.81 160.948 138.38 159.895 138.361C158.841 138.38 157.837 138.81 157.099 139.561C156.36 140.312 155.946 141.322 155.946 142.375C155.946 143.427 156.36 144.438 157.099 145.188C157.837 145.939 158.841 146.37 159.895 146.388ZM216.136 146.388C218.36 146.388 220.154 144.591 220.154 142.375C220.154 140.159 218.36 138.361 216.136 138.361C215.082 138.38 214.078 138.81 213.34 139.561C212.601 140.312 212.187 141.322 212.187 142.375C212.187 143.427 212.601 144.438 213.34 145.188C214.078 145.939 215.082 146.37 216.136 146.388Z" fill="#25316D"/>
<path fill-rule="evenodd" clip-rule="evenodd" d="M168.608 207.769C168.608 207.769 186.474 219.293 199.225 217.883C211.976 216.479 239.036 194.927 239.036 194.927C239.036 194.927 225.681 220.234 199.225 226.643C186.733 229.665 168.608 217.883 168.608 217.883V207.769Z" fill="#25316D"/>
<path d="M365.346 118.394C365.2 118.889 364.976 119.348 364.692 119.766C364.504 120.042 364.29 120.299 364.054 120.537M364.054 120.537C363.805 120.332 363.678 120.026 363.693 119.719C363.422 120.152 362.862 120.315 362.396 120.082C362.368 120.068 362.34 120.052 362.314 120.036C361.776 120.726 361.086 121.205 360.279 121.413C360.284 121.456 360.286 121.499 360.285 121.543C360.284 121.64 360.268 121.733 360.242 121.82C360.356 121.969 360.43 122.152 360.446 122.35C361.803 122.135 363.106 121.494 364.054 120.537ZM363.771 41.5524C363.787 41.5575 363.803 41.5622 363.82 41.5665C364.493 41.7406 365.156 41.9332 365.809 42.1435C366.33 42.3116 366.889 42.0292 367.064 41.5121C369.148 42.2492 371.123 43.1651 372.97 44.2352C372.689 44.7032 372.836 45.3112 373.301 45.5991C374.484 46.3305 375.609 47.128 376.672 47.9841C377.098 48.3274 377.72 48.2639 378.069 47.8441C379.737 49.2717 381.246 50.8441 382.574 52.5322C382.141 52.8627 382.051 53.4812 382.376 53.9212C383.197 55.033 383.939 56.192 384.597 57.3897C384.86 57.8689 385.459 58.0469 385.941 57.792C386.928 59.7354 387.705 61.7714 388.249 63.8681C387.72 63.9959 387.388 64.525 387.508 65.0583C387.805 66.3922 388.006 67.7485 388.104 69.1186C388.143 69.6635 388.612 70.0748 389.156 70.0451C389.233 72.1852 389.068 74.3543 388.64 76.5225C388.19 76.4255 387.743 76.6484 387.54 77.0411C387.435 76.7025 387.152 76.4309 386.779 76.3572C386.774 76.3561 386.768 76.355 386.763 76.354C387.089 74.3599 387.204 72.3754 387.12 70.4233C387.126 70.423 387.131 70.4226 387.137 70.4221C387.688 70.3788 388.099 69.8975 388.056 69.347C387.949 67.9713 387.746 66.6132 387.452 65.2805C387.333 64.7413 386.799 64.4007 386.26 64.5199C386.254 64.5212 386.249 64.5225 386.243 64.5238C385.747 62.5991 385.054 60.7341 384.177 58.954C384.182 58.9514 384.187 58.9487 384.192 58.946C384.679 58.685 384.862 58.079 384.601 57.5923C383.956 56.3886 383.228 55.2259 382.422 54.1119C382.098 53.6645 381.473 53.5644 381.026 53.8881C381.021 53.8914 381.017 53.8947 381.012 53.898C379.808 52.3458 378.442 50.8991 376.928 49.5813C376.931 49.5773 376.935 49.5731 376.938 49.569C377.287 49.1409 377.223 48.5111 376.795 48.1623C375.746 47.3072 374.634 46.5105 373.462 45.7787C372.994 45.4862 372.377 45.6288 372.084 46.0972C372.081 46.1016 372.078 46.106 372.076 46.1105C370.395 45.1323 368.596 44.288 366.689 43.5969C366.69 43.5923 366.692 43.5878 366.694 43.5831C366.867 43.0587 366.582 42.4934 366.058 42.3204C365.415 42.1085 364.761 41.9132 364.096 41.7353C363.432 41.5576 362.769 41.3997 362.106 41.2613C361.565 41.1483 361.035 41.4949 360.922 42.0354C360.921 42.04 360.92 42.0447 360.919 42.0493C358.925 41.6911 356.944 41.5136 354.996 41.5069C354.996 41.5018 354.996 41.4968 354.996 41.4918C354.982 40.9398 354.522 40.5042 353.97 40.5189C352.59 40.5557 351.227 40.6761 349.889 40.8767C349.342 40.9586 348.966 41.4678 349.047 42.0139C349.048 42.019 349.049 42.0242 349.05 42.0293C347.072 42.3896 345.156 42.9323 343.326 43.6454C343.324 43.6403 343.322 43.6352 343.32 43.6302C343.102 43.1226 342.515 42.8874 342.007 43.1049C340.741 43.647 339.518 44.27 338.346 44.9702C337.871 45.2534 337.716 45.8673 338 46.3414C338.003 46.3463 338.005 46.3511 338.008 46.356C336.337 47.4337 334.782 48.6782 333.371 50.0767C333.367 50.0726 333.363 50.0685 333.358 50.0644C332.956 49.6865 332.323 49.7065 331.945 50.1091C331.008 51.1055 330.14 52.1713 329.346 53.3025C329.029 53.7548 329.138 54.3783 329.591 54.6952C329.596 54.6986 329.6 54.702 329.605 54.7053C328.542 56.3438 327.637 58.1145 326.916 60.0055C326.91 60.0036 326.905 60.0017 326.899 59.9998C326.377 59.8212 325.808 60.1 325.629 60.6225C325.409 61.2664 325.208 61.9228 325.029 62.5913C324.878 63.1547 324.746 63.7215 324.632 64.2908C324.706 63.7979 324.788 63.3066 324.878 62.8173C325.027 62.1499 325.201 61.4935 325.399 60.8485C325.559 60.3264 325.271 59.7739 324.754 59.6053C325.477 57.5257 326.441 55.5676 327.607 53.7489C328.06 54.0506 328.673 53.9344 328.984 53.4849C329.766 52.3552 330.63 51.2842 331.566 50.2772C331.939 49.8767 331.92 49.2526 331.527 48.8754C333.057 47.3346 334.753 45.953 336.575 44.749C336.869 45.2084 337.478 45.3484 337.944 45.0607C339.114 44.3371 340.335 43.6871 341.594 43.1156C342.092 42.8893 342.315 42.3051 342.097 41.8053C344.101 40.9663 346.191 40.3184 348.328 39.8794C348.429 40.4152 348.942 40.7718 349.482 40.6779C350.838 40.4415 352.211 40.292 353.59 40.2341C354.137 40.2111 354.562 39.7536 354.548 39.2087C356.714 39.1855 358.889 39.3827 361.038 39.8177C360.92 40.3496 361.251 40.879 361.783 41.0052C362.449 41.1633 363.112 41.3455 363.771 41.5524ZM386.203 82.1579C386.293 82.4438 386.51 82.6858 386.813 82.7963C385.902 85.167 384.704 87.4519 383.232 89.5249C382.899 89.2788 382.46 89.2705 382.124 89.4725C382.116 89.1926 381.991 88.9177 381.757 88.7267C381.752 88.7224 381.746 88.7182 381.741 88.714C383.207 86.763 384.291 84.7026 385.14 82.417C385.145 82.4187 385.15 82.4204 385.155 82.4221C385.538 82.5503 385.943 82.4341 386.203 82.1579ZM376.246 94.7273C376.537 94.9894 376.94 95.0494 377.283 94.9149C377.206 95.2531 377.308 95.6218 377.582 95.873C377.584 95.8749 377.586 95.8769 377.588 95.8788C375.847 97.8428 374.274 99.889 372.857 102.022C372.855 102.021 372.852 102.019 372.85 102.018C372.48 101.782 372.014 101.819 371.689 102.078C371.708 101.735 371.549 101.391 371.242 101.189C372.764 98.9287 374.436 96.7687 376.246 94.7273ZM369.406 107.97C369.409 107.972 369.412 107.973 369.414 107.974C368.27 110.263 367.27 112.643 366.401 115.119C366.399 115.119 366.397 115.118 366.394 115.117C365.87 114.942 365.304 115.226 365.129 115.749C364.869 116.528 364.622 117.315 364.387 118.111L364.387 118.111C364.307 118.379 364.199 118.636 364.064 118.88C364.118 118.731 364.169 118.578 364.215 118.423C364.451 117.622 364.704 116.827 364.973 116.038C365.151 115.518 364.875 114.953 364.357 114.772C365.281 112.204 366.375 109.702 367.628 107.283C368.056 107.509 368.575 107.394 368.87 107.031C368.85 107.41 369.048 107.784 369.406 107.97Z" stroke="#25316D" stroke-width="2" stroke-linecap="round" stroke-linejoin="round" stroke-dasharray="4.37 8.73"/>
<path d="M327.728 132.047L352.376 138.644L349.512 149.321C349.345 149.943 348.788 150.521 347.795 150.862C346.809 151.2 345.499 151.256 344.118 150.886L328.752 146.773C327.371 146.404 326.264 145.701 325.58 144.916C324.891 144.124 324.698 143.346 324.864 142.724L327.728 132.047Z" stroke="#25316D" stroke-width="2" stroke-linecap="round" stroke-linejoin="round"/>
<path d="M365.137 16.7644C367.317 16.9019 369.607 17.1629 371.75 17.6017M372.637 17.2896C369.471 23.2313 367.118 29.4981 364.141 35.5099M365.625 17.404C364.957 22.9959 364.885 28.6316 364.339 34.2122M398.928 17.3264C393.138 25.379 388.117 33.971 382.013 41.7827M398.445 17.4547C399.841 19.4579 401.385 21.3771 402.732 23.3969M403.421 24.6318C395.646 30.5809 387.997 36.8382 379.801 42.1735M390.332 53.6222C397.019 53.1991 403.807 53.4386 410.501 53.493M410.977 53.6915C410.067 56.119 409.447 58.6322 408.601 61.0869M389.897 54.8639C395.031 56.8197 400.063 59.025 405.171 61.0441" stroke="#25316D" stroke-width="2" stroke-miterlimit="1.5" stroke-linecap="round" stroke-linejoin="round"/>
<path d="M357.469 125.82L331.849 118.206C331.035 117.964 330.251 118.259 330.157 118.844L329.852 120.746C329.597 122.337 329.852 124.025 330.6 125.683C330.725 125.96 331.049 126.188 331.427 126.266C339.207 127.888 346.641 130.074 353.699 132.875C354.085 133.028 354.511 133.002 354.764 132.807L354.996 132.628C356.157 131.733 357.032 130.648 357.576 129.429L358.536 127.278C358.777 126.737 358.283 126.062 357.469 125.82Z" fill="#58B9FD"/>
<path d="M334.754 157.747L330.208 156.396C329.708 156.247 329.311 155.864 329.143 155.367L327.435 150.33L340.397 154.182L336.209 157.467C335.796 157.791 335.254 157.895 334.754 157.747Z" fill="#58B9FD"/>
<path d="M328.961 134.33L349.939 140.564L348.701 146.161C347.968 148.624 345.389 150.034 342.947 149.308L330.819 145.704C328.376 144.978 326.989 142.389 327.723 139.927L328.961 134.33Z" fill="#58B9FD"/>
<path d="M336.351 157.433L330.591 155.892C330.273 155.807 330.013 155.571 329.896 155.255L328.246 150.796L340.933 154.192L337.272 157.229C337.012 157.444 336.669 157.519 336.351 157.433Z" stroke="#25316D" stroke-width="2" stroke-linecap="round" stroke-linejoin="round"/>
<path d="M327.585 116.463L327.585 116.463C327.671 115.972 328.151 115.674 328.607 115.796L361.066 124.484C361.522 124.606 361.789 125.103 361.617 125.571L360.14 129.594C359.345 131.757 358.156 133.754 356.635 135.48L356.314 135.844C356.248 135.92 356.146 135.943 356.055 135.905C347.104 132.222 337.602 129.721 327.594 128.305C327.504 128.292 327.43 128.228 327.405 128.14L326.443 128.412L327.405 128.14C326.652 125.468 326.508 122.657 326.985 119.915L327.585 116.463Z" stroke="#25316D" stroke-width="2" stroke-linecap="round" stroke-linejoin="round"/>
<path d="M341.051 106.599C346.182 97.8381 350.659 88.4414 350.787 78.0783C350.705 74.6475 350.301 70.6774 348.217 67.8239C346.865 65.9968 344.521 65.4677 343.183 67.6901C341.178 71.0211 344.502 74.7527 347.411 76.2599C353.167 79.166 361.462 78.1427 367.362 75.7484C369.342 74.8938 375.129 71.5498 372.808 68.5428C368.766 63.0536 362.361 71.3909 360.983 74.796C359.21 79.2978 358.363 84.1343 357.564 88.7988C356.166 96.7074 355.338 104.865 354.844 112.832" stroke="#CB2027" stroke-width="2" stroke-miterlimit="1.5" stroke-linecap="round" stroke-linejoin="round"/>
<path d="M362.154 46.293C371.141 49.2273 377.948 56.5312 382 64.83M383.779 71.9908C384.011 74.9114 383.779 77.3302 382 80.8302" stroke="#25316D" stroke-width="2" stroke-miterlimit="1.5" stroke-linecap="round" stroke-linejoin="round"/>
</g>
<defs>
<clipPath id="clip0_325_1468">
<rect width="426.226" height="386.049" fill="white" transform="translate(0.773438 0.379395)"/>
</clipPath>
</defs>
</svg>
