<svg width="64" height="64" viewBox="0 0 64 64" fill="none" xmlns="http://www.w3.org/2000/svg">
<path d="M30.3184 33.1016V34.7827" stroke="#CB2027" stroke-width="2" stroke-linecap="round"/>
<path d="M33.6816 33.1016V34.7827" stroke="#CB2027" stroke-width="2" stroke-linecap="round"/>
<path d="M32 33.1016V36.0436" stroke="#CB2027" stroke-width="2" stroke-linecap="round"/>
<path d="M37.246 29.9189L38.148 30.5076L41.8842 32.9462L42.9886 28.3453L39.5488 24.4588L39.2212 24.0887L39.3163 23.6036C40.5651 17.2334 38.5342 11.3676 32.4554 6.16668L37.246 29.9189ZM37.246 29.9189L36.7258 30.8619M37.246 29.9189L36.7258 30.8619M36.7258 30.8619C36.5678 31.1484 36.4036 31.4347 36.2332 31.7212C36.1084 31.9307 35.861 32.0784 35.5673 32.0784H28.4327C28.139 32.0784 27.8916 31.9307 27.7668 31.7212C27.5964 31.4347 27.4322 31.1484 27.2742 30.8619L26.754 29.9189L25.852 30.5076L22.1158 32.9462L21.0114 28.3452L21.0152 28.3406L23.7392 25.1257L24.4082 24.4447L24.7788 24.0674M36.7258 30.8619L24.7788 24.0674M24.7788 24.0674L24.6756 23.5487M24.7788 24.0674L24.6756 23.5487M24.6756 23.5487C23.4053 17.165 25.4435 11.3869 31.5446 6.16668L24.6756 23.5487ZM43.0033 28.2839L43.0032 28.2843L43.0033 28.2839ZM31.5447 6.16653C31.8045 5.94449 32.1955 5.94449 32.4553 6.16654L31.5447 6.16653Z" fill="white" stroke="#25316D" stroke-width="2"/>
<path d="M28.8125 16.2016C28.8125 17.9348 30.2397 19.3401 32.0002 19.3401C33.7606 19.3401 35.1879 17.9348 35.1879 16.2016C35.1879 14.4682 33.7606 13.063 32.0002 13.063C30.2397 13.063 28.8125 14.4682 28.8125 16.2016Z" fill="#CB2027"/>
<path d="M4.5 44L11 36L32 38L28.5 45.5L4.5 44Z" fill="white" stroke="#25316D" stroke-width="2" stroke-linejoin="round"/>
<path d="M8 57.0527L7.89856 58.0476C7.3882 57.9955 7 57.5657 7 57.0527H8ZM7 44.5001C7 43.9478 7.44772 43.5001 8 43.5001C8.55228 43.5001 9 43.9478 9 44.5001H7ZM7 57.0527V44.5001H9V57.0527H7ZM31.8986 60.4948L7.89856 58.0476L8.10144 56.0579L32.1014 58.5052L31.8986 60.4948Z" fill="#25316D"/>
<path d="M59.5 44L53 36L32 38L35.5 45.5L59.5 44Z" fill="white" stroke="#25316D" stroke-width="2" stroke-linejoin="round"/>
<path d="M56 57.0527L56.1014 58.0476C56.6118 57.9955 57 57.5657 57 57.0527H56ZM57 44.5001C57 43.9478 56.5523 43.5001 56 43.5001C55.4477 43.5001 55 43.9478 55 44.5001H57ZM57 57.0527V44.5001H55V57.0527H57ZM32.1014 60.4948L56.1014 58.0476L55.8986 56.0579L31.8986 58.5052L32.1014 60.4948Z" fill="#25316D"/>
<path d="M32 59.5798V38.145" stroke="#25316D" stroke-width="2" stroke-linecap="round"/>
<path d="M41.9519 55.9038C43.0299 55.9038 43.9038 55.0299 43.9038 53.9519C43.9038 52.8739 43.0299 52 41.9519 52C40.8739 52 40 52.8739 40 53.9519C40 55.0299 40.8739 55.9038 41.9519 55.9038Z" fill="#CB2027"/>
<path d="M46.9519 55.4038C48.0299 55.4038 48.9038 54.5299 48.9038 53.4519C48.9038 52.3739 48.0299 51.5 46.9519 51.5C45.8739 51.5 45 52.3739 45 53.4519C45 54.5299 45.8739 55.4038 46.9519 55.4038Z" fill="#CB2027"/>
<path d="M51.9519 54.9038C53.0299 54.9038 53.9038 54.0299 53.9038 52.9519C53.9038 51.8739 53.0299 51 51.9519 51C50.8739 51 50 51.8739 50 52.9519C50 54.0299 50.8739 54.9038 51.9519 54.9038Z" fill="#CB2027"/>
<path d="M16.2896 49L14.6084 50.6812L16.2896 52.3623" stroke="#CB2027" stroke-width="2" stroke-linecap="round" stroke-linejoin="round"/>
<path d="M23.333 50L25.0142 51.68L23.333 53.36" stroke="#CB2027" stroke-width="2" stroke-linecap="round" stroke-linejoin="round"/>
<path d="M20.6519 49.5L18.9707 52.8623" stroke="#CB2027" stroke-width="2" stroke-linecap="round" stroke-linejoin="round"/>
</svg>
