<svg width="200" height="44" viewBox="0 0 200 44" fill="none" xmlns="http://www.w3.org/2000/svg">
<path d="M148.623 17.1851L156.656 38.6012H165.63L157.592 17.1851H148.623Z" fill="#CB2027"/>
<path d="M21.4496 2.7652C11.3003 2.7652 3.07422 10.9931 3.07422 21.1404C3.07422 31.2877 11.3003 39.5198 21.4496 39.5198C24.1581 39.5198 26.7279 38.9276 29.0416 37.8776L32.7579 42.2708L39.1699 36.8444L35.6973 32.7409C38.2755 29.5783 39.8208 25.5421 39.8208 21.1404C39.825 10.9931 31.5989 2.7652 21.4496 2.7652ZM21.4496 31.1197C15.9488 31.1197 11.4725 26.6425 11.4725 21.1404C11.4725 15.6383 15.9488 11.1611 21.4496 11.1611C26.9505 11.1611 31.4268 15.6383 31.4268 21.1404C31.4268 22.9506 30.9397 24.6474 30.0956 26.1133L25.9427 21.2034L19.5264 26.6299L23.1923 30.9643C22.6254 31.0651 22.0459 31.1197 21.4496 31.1197Z" fill="#25316D"/>
<path d="M69.4495 2.7652H58.0321H49.68H49.6338V38.6001H58.0321V26.3359H61.9205L68.6811 38.5959H78.2719L71.3979 26.1301C75.6306 25.2313 78.8052 21.4765 78.8052 16.9782V12.1229C78.8052 6.95266 74.6186 2.7652 69.4495 2.7652ZM58.0782 11.1653H69.4495C69.9786 11.1653 70.4069 11.5937 70.4069 12.1229V16.9824C70.4069 17.5116 69.9786 17.94 69.4495 17.94H58.0782V11.1653Z" fill="#25316D"/>
<path d="M121.501 2.7652H101.732V2.95H101.686V38.6001H110.084V26.3359H121.501C126.666 26.3359 130.857 22.1443 130.857 16.9782V12.1229C130.857 6.95266 126.67 2.7652 121.501 2.7652ZM122.459 16.9782C122.459 17.5074 122.03 17.9358 121.501 17.9358H110.13V11.1653H121.501C122.03 11.1653 122.459 11.5937 122.459 12.1229V16.9782Z" fill="#25316D"/>
<path d="M197.124 2.95068H187.092L179.114 15.1728L171.131 2.95068H161.104L174.948 24.1568V38.6008H183.346V24.056L197.124 2.95068Z" fill="#25316D"/>
<path d="M142.93 2.95068L129.556 38.6008H138.525L151.899 2.95068H142.93Z" fill="#25316D"/>
</svg>
